<svg xmlns="http://www.w3.org/2000/svg" xmlns:xlink="http://www.w3.org/1999/xlink" width="500" zoomAndPan="magnify" viewBox="0 0 375 374.999991" height="500" preserveAspectRatio="xMidYMid meet" version="1.0"><defs><clipPath id="8b8c193b23"><path d="M 4.464844 0 L 375 0 L 375 375 L 4.464844 375 Z M 4.464844 0 " clip-rule="nonzero"/></clipPath><clipPath id="a9d9dba435"><path d="M 42.273438 136.230469 L 246 136.230469 L 246 238.980469 L 42.273438 238.980469 Z M 42.273438 136.230469 " clip-rule="nonzero"/></clipPath><clipPath id="335ea40763"><path d="M 133 136.230469 L 341.523438 136.230469 L 341.523438 238.980469 L 133 238.980469 Z M 133 136.230469 " clip-rule="nonzero"/></clipPath></defs><g clip-path="url(#8b8c193b23)"><path fill="#ffffff" d="M 379.457031 187.496094 C 379.457031 190.566406 379.382812 193.632812 379.234375 196.695312 C 379.082031 199.761719 378.855469 202.820312 378.554688 205.875 C 378.253906 208.929688 377.878906 211.972656 377.429688 215.007812 C 376.980469 218.042969 376.453125 221.066406 375.855469 224.074219 C 375.257812 227.085938 374.585938 230.078125 373.839844 233.054688 C 373.09375 236.03125 372.277344 238.988281 371.386719 241.925781 C 370.496094 244.859375 369.53125 247.773438 368.5 250.664062 C 367.464844 253.550781 366.359375 256.414062 365.1875 259.25 C 364.011719 262.085938 362.769531 264.886719 361.457031 267.664062 C 360.144531 270.4375 358.765625 273.175781 357.320312 275.882812 C 355.871094 278.589844 354.359375 281.257812 352.78125 283.890625 C 351.207031 286.523438 349.5625 289.113281 347.859375 291.664062 C 346.15625 294.214844 344.386719 296.722656 342.5625 299.1875 C 340.734375 301.652344 338.84375 304.070312 336.898438 306.445312 C 334.953125 308.816406 332.949219 311.140625 330.886719 313.414062 C 328.828125 315.6875 326.710938 317.90625 324.542969 320.078125 C 322.371094 322.246094 320.152344 324.363281 317.875 326.421875 C 315.601562 328.484375 313.28125 330.488281 310.910156 332.433594 C 308.535156 334.382812 306.117188 336.269531 303.652344 338.097656 C 301.1875 339.925781 298.679688 341.691406 296.128906 343.394531 C 293.578125 345.101562 290.984375 346.742188 288.355469 348.320312 C 285.722656 349.894531 283.054688 351.410156 280.347656 352.855469 C 277.640625 354.300781 274.902344 355.679688 272.125 356.992188 C 269.351562 358.304688 266.546875 359.546875 263.714844 360.722656 C 260.878906 361.894531 258.015625 363 255.128906 364.035156 C 252.238281 365.066406 249.324219 366.03125 246.390625 366.921875 C 243.453125 367.8125 240.496094 368.628906 237.519531 369.375 C 234.542969 370.121094 231.550781 370.792969 228.539062 371.390625 C 225.53125 371.992188 222.507812 372.515625 219.472656 372.964844 C 216.4375 373.414062 213.394531 373.789062 210.339844 374.089844 C 207.285156 374.390625 204.226562 374.617188 201.160156 374.769531 C 198.097656 374.917969 195.03125 374.996094 191.960938 374.996094 C 188.894531 374.996094 185.828125 374.917969 182.761719 374.769531 C 179.695312 374.617188 176.636719 374.390625 173.582031 374.089844 C 170.53125 373.789062 167.484375 373.414062 164.449219 372.964844 C 161.414062 372.515625 158.390625 371.992188 155.382812 371.390625 C 152.371094 370.792969 149.378906 370.121094 146.402344 369.375 C 143.425781 368.628906 140.46875 367.8125 137.535156 366.921875 C 134.597656 366.03125 131.683594 365.066406 128.796875 364.035156 C 125.90625 363 123.042969 361.894531 120.210938 360.722656 C 117.375 359.546875 114.570312 358.304688 111.796875 356.992188 C 109.023438 355.679688 106.28125 354.300781 103.574219 352.855469 C 100.871094 351.410156 98.199219 349.894531 95.570312 348.320312 C 92.9375 346.742188 90.34375 345.101562 87.792969 343.394531 C 85.242188 341.691406 82.734375 339.925781 80.269531 338.097656 C 77.804688 336.269531 75.386719 334.382812 73.015625 332.433594 C 70.640625 330.488281 68.320312 328.484375 66.046875 326.421875 C 63.773438 324.363281 61.550781 322.246094 59.382812 320.078125 C 57.210938 317.90625 55.097656 315.6875 53.035156 313.414062 C 50.972656 311.140625 48.972656 308.816406 47.023438 306.445312 C 45.078125 304.070312 43.191406 301.652344 41.363281 299.1875 C 39.535156 296.722656 37.769531 294.214844 36.0625 291.664062 C 34.359375 289.113281 32.71875 286.523438 31.140625 283.890625 C 29.5625 281.257812 28.050781 278.589844 26.605469 275.882812 C 25.15625 273.175781 23.777344 270.4375 22.464844 267.664062 C 21.152344 264.886719 19.910156 262.085938 18.738281 259.25 C 17.5625 256.414062 16.457031 253.550781 15.425781 250.664062 C 14.390625 247.773438 13.429688 244.859375 12.539062 241.925781 C 11.648438 238.988281 10.828125 236.03125 10.082031 233.054688 C 9.335938 230.078125 8.664062 227.085938 8.066406 224.074219 C 7.46875 221.066406 6.945312 218.042969 6.492188 215.007812 C 6.042969 211.972656 5.667969 208.929688 5.367188 205.875 C 5.066406 202.820312 4.839844 199.761719 4.691406 196.695312 C 4.539062 193.632812 4.464844 190.566406 4.464844 187.496094 C 4.464844 184.429688 4.539062 181.363281 4.691406 178.296875 C 4.839844 175.230469 5.066406 172.171875 5.367188 169.121094 C 5.667969 166.066406 6.042969 163.019531 6.492188 159.984375 C 6.945312 156.949219 7.46875 153.929688 8.066406 150.917969 C 8.664062 147.910156 9.335938 144.914062 10.082031 141.9375 C 10.828125 138.960938 11.648438 136.007812 12.539062 133.070312 C 13.429688 130.132812 14.390625 127.21875 15.425781 124.332031 C 16.457031 121.441406 17.5625 118.578125 18.738281 115.746094 C 19.910156 112.910156 21.152344 110.105469 22.464844 107.332031 C 23.777344 104.558594 25.15625 101.816406 26.605469 99.113281 C 28.050781 96.40625 29.5625 93.734375 31.140625 91.105469 C 32.71875 88.472656 34.359375 85.878906 36.0625 83.328125 C 37.769531 80.777344 39.535156 78.269531 41.363281 75.804688 C 43.191406 73.339844 45.078125 70.921875 47.023438 68.550781 C 48.972656 66.179688 50.972656 63.855469 53.035156 61.582031 C 55.097656 59.308594 57.210938 57.085938 59.382812 54.917969 C 61.550781 52.746094 63.773438 50.632812 66.046875 48.570312 C 68.320312 46.511719 70.640625 44.507812 73.015625 42.558594 C 75.386719 40.613281 77.804688 38.726562 80.269531 36.898438 C 82.734375 35.070312 85.242188 33.304688 87.792969 31.597656 C 90.34375 29.894531 92.9375 28.253906 95.570312 26.675781 C 98.199219 25.097656 100.871094 23.585938 103.574219 22.140625 C 106.28125 20.691406 109.023438 19.3125 111.796875 18 C 114.570312 16.691406 117.375 15.445312 120.210938 14.273438 C 123.042969 13.097656 125.90625 11.992188 128.796875 10.960938 C 131.683594 9.925781 134.597656 8.964844 137.535156 8.074219 C 140.46875 7.183594 143.425781 6.363281 146.402344 5.617188 C 149.378906 4.875 152.371094 4.203125 155.382812 3.601562 C 158.390625 3.003906 161.414062 2.480469 164.449219 2.03125 C 167.484375 1.578125 170.53125 1.203125 173.582031 0.902344 C 176.636719 0.601562 179.695312 0.375 182.761719 0.226562 C 185.828125 0.0742188 188.894531 0 191.960938 0 C 195.03125 0 198.097656 0.0742188 201.160156 0.226562 C 204.226562 0.375 207.285156 0.601562 210.339844 0.902344 C 213.394531 1.203125 216.4375 1.578125 219.472656 2.03125 C 222.507812 2.480469 225.53125 3.003906 228.539062 3.601562 C 231.550781 4.203125 234.542969 4.875 237.519531 5.617188 C 240.496094 6.363281 243.453125 7.183594 246.390625 8.074219 C 249.324219 8.964844 252.238281 9.925781 255.128906 10.960938 C 258.015625 11.992188 260.878906 13.097656 263.714844 14.273438 C 266.546875 15.445312 269.351562 16.691406 272.125 18 C 274.902344 19.3125 277.640625 20.691406 280.347656 22.140625 C 283.054688 23.585938 285.722656 25.097656 288.355469 26.675781 C 290.984375 28.253906 293.578125 29.894531 296.128906 31.597656 C 298.679688 33.304688 301.1875 35.070312 303.652344 36.898438 C 306.117188 38.726562 308.535156 40.613281 310.910156 42.558594 C 313.28125 44.507812 315.601562 46.511719 317.875 48.570312 C 320.152344 50.632812 322.371094 52.746094 324.542969 54.917969 C 326.710938 57.085938 328.828125 59.308594 330.886719 61.582031 C 332.949219 63.855469 334.953125 66.179688 336.898438 68.550781 C 338.84375 70.921875 340.734375 73.339844 342.558594 75.804688 C 344.386719 78.269531 346.15625 80.777344 347.859375 83.328125 C 349.5625 85.878906 351.207031 88.472656 352.78125 91.105469 C 354.359375 93.734375 355.871094 96.40625 357.320312 99.113281 C 358.765625 101.816406 360.144531 104.558594 361.457031 107.332031 C 362.769531 110.105469 364.011719 112.910156 365.1875 115.746094 C 366.359375 118.578125 367.464844 121.441406 368.5 124.332031 C 369.53125 127.21875 370.496094 130.132812 371.386719 133.070312 C 372.277344 136.007812 373.09375 138.960938 373.839844 141.9375 C 374.585938 144.914062 375.257812 147.910156 375.855469 150.917969 C 376.453125 153.929688 376.980469 156.949219 377.429688 159.984375 C 377.878906 163.019531 378.253906 166.066406 378.554688 169.121094 C 378.855469 172.171875 379.082031 175.230469 379.234375 178.296875 C 379.382812 181.363281 379.457031 184.429688 379.457031 187.496094 Z M 379.457031 187.496094 " fill-opacity="1" fill-rule="nonzero"/></g><g clip-path="url(#a9d9dba435)"><path fill="#006845" d="M 80.328125 238.167969 L 42.273438 238.167969 L 144.011719 136.425781 L 245.761719 238.167969 L 207.707031 238.167969 L 144.011719 174.484375 Z M 106.585938 153.621094 L 79.675781 153.621094 L 79.675781 185.644531 L 106.585938 159.65625 Z M 106.585938 153.621094 " fill-opacity="1" fill-rule="nonzero"/></g><g clip-path="url(#335ea40763)"><path fill="#242424" d="M 219.039062 195.75 L 200.015625 176.722656 L 239.910156 136.828125 L 341.652344 238.566406 L 303.59375 238.566406 L 239.910156 174.882812 Z M 141.558594 213.75 L 141.558594 205.320312 L 133.128906 205.320312 L 133.128906 213.75 Z M 155.5625 213.75 L 155.5625 205.320312 L 147.132812 205.320312 L 147.132812 213.75 Z M 141.558594 227.574219 L 141.558594 219.136719 L 133.128906 219.136719 L 133.128906 227.574219 Z M 155.5625 227.574219 L 155.5625 219.136719 L 147.132812 219.136719 L 147.132812 227.574219 Z M 155.5625 227.574219 " fill-opacity="1" fill-rule="nonzero"/></g></svg>